{"title":"Shin Chan Season 3 Part 1 High Quality --- DvD Rip --- MP4","uid":6572079,"size":1509061540,"categoryP":"video","categoryS":"tv_shows","magnet":"?xt=urn:btih:f3c3989508a467a39a9d62d4afe367e18986ccdd&amp;dn=Shin+Chan+Season+3+Part+1+High+Quality+---+DvD+Rip+---+MP4&amp;tr=udp%3A%2F%2Ftracker.openbittorrent.com%3A80&amp;tr=udp%3A%2F%2Fopen.demonii.com%3A1337&amp;tr=udp%3A%2F%2Ftracker.coppersurfer.tk%3A6969&amp;tr=udp%3A%2F%2Fexodus.desync.com%3A6969","seeders":3,"leechers":0,"uploader":"DeeJay1208","files":14,"time":1312017382,"description":"Season 3 Part 1 of Shin Chan\n[img]http://i1214.photobucket.com/albums/cc487/seeder1/shin_chan_z.gif[/img]\nANN Link to the Show\n[url]http://www.animenewsnetwork.com/encyclopedia/anime.php?id=540[/url]\n[quote]Plot Summary: Shinnosuke &quot;Shin-chan&quot; Nohara is a little boy who seems to do everything he can to annoy his parents and teachers (and succeeds wildly), but only means the best. He just tries to have a good time and in doing so does things which will create the maximum vexation in others. [/quote]\n\nAVC/AAC MP4's\nResolution: 720x536 &amp; 720x408 (Some are 4:3 while others are 16:9)\nFrame rate: 23.976 fps\n\n\nIncludes:\nEpisodes 53 - 65\n\n\nEnjoy and Please Seed.\n\nCan't play the files? Download and use [url=http://cccp-project.net/]CCCP[/url] and stop living in the past.\n\nExample File Info:\n\n[quote]General\nComplete name                    : Shin Chan Episode 63 - The Upside of Prison Showers.mp4\nFormat                           : MPEG-4\nFormat profile                   : Base Media\nCodec ID                         : isom\nFile size                        : 107 MiB\nDuration                         : 26mn 42s\nOverall bit rate                 : 558 Kbps\n\nVideo\nID                               : 1\nFormat                           : AVC\nFormat/Info                      : Advanced Video Codec\nFormat profile                   : &lt;a class=&quot;__cf_email__&quot; href=&quot;/cdn-cgi/l/email-protection&quot; data-cfemail=&quot;fcb4959b94bcb0c9d2cd&quot;&gt;[email&amp;#160;protected]&lt;/a&gt;&lt;script cf-hash='f9e31' type=&quot;text/javascript&quot;&gt;\n/* &lt;![CDATA[ */!function(){try{var t=&quot;currentScript&quot;in document?document.currentScript:function(){for(var t=document.getElementsByTagName(&quot;script&quot;),e=t.length;e--;)if(t[e].getAttribute(&quot;cf-hash&quot;))return t[e]}();if(t&amp;&amp;t.previousSibling){var e,r,n,i,c=t.previousSibling,a=c.getAttribute(&quot;data-cfemail&quot;);if(a){for(e=&quot;&quot;,r=parseInt(a.substr(0,2),16),n=2;a.length-n;n+=2)i=parseInt(a.substr(n,2),16)^r,e+=String.fromCharCode(i);e=document.createTextNode(e),c.parentNode.replaceChild(e,c)}}}catch(u){}}();/* ]]&gt; */&lt;/script&gt;\nFormat settings, CABAC           : Yes\nFormat settings, ReFrames        : 9 frames\nFormat settings, GOP             : M=1, N=9\nCodec ID                         : avc1\nCodec ID/Info                    : Advanced Video Coding\nDuration                         : 26mn 42s\nBit rate mode                    : Variable\nBit rate                         : 362 Kbps\nMaximum bit rate                 : 4 608 Kbps\nWidth                            : 720 pixels\nHeight                           : 408 pixels\nDisplay aspect ratio             : 16:9\nFrame rate mode                  : Constant\nFrame rate                       : 23.976 fps\nColor space                      : YUV\nChroma subsampling               : 4:2:0\nBit depth                        : 8 bits\nScan type                        : Progressive\nBits/(Pixel*Frame)               : 0.051\nStream size                      : 69.1 MiB (65%)\nTitle                            : Imported with GPAC 0.4.6-DEV (build 1)\nWriting library                  : x264 core 92 r1510 33d382a\nEncoding settings                : *snipped*\n\n\nAudio\nID                               : 2\nFormat                           : AAC\nFormat/Info                      : Advanced Audio Codec\nFormat profile                   : LC\nCodec ID                         : 40\nDuration                         : 26mn 42s\nBit rate mode                    : Variable\nBit rate                         : 192 Kbps\nMaximum bit rate                 : 218 Kbps\nChannel(s)                       : 2 channels\nChannel positions                : Front: L R\nSampling rate                    : 48.0 KHz\nCompression mode                 : Lossy\nStream size                      : 36.7 MiB (34%)\n[/quote]","torrent":{"xt":"urn:btih:f3c3989508a467a39a9d62d4afe367e18986ccdd","amp;dn":"Shin+Chan+Season+3+Part+1+High+Quality+---+DvD+Rip+---+MP4","amp;tr":["udp%3A%2F%2Ftracker.openbittorrent.com%3A80","udp%3A%2F%2Fopen.demonii.com%3A1337","udp%3A%2F%2Ftracker.coppersurfer.tk%3A6969","udp%3A%2F%2Fexodus.desync.com%3A6969"],"infoHash":"f3c3989508a467a39a9d62d4afe367e18986ccdd","infoHashBuffer":{"type":"Buffer","data":[243,195,152,149,8,164,103,163,154,157,98,212,175,227,103,225,137,134,204,221]},"announce":[],"urlList":[]}}